<svg width="13" height="10" viewBox="0 0 13 10" fill="none" xmlns="http://www.w3.org/2000/svg">
<path d="M-4.86374e-05 5.25C-4.86374e-05 5.2 -4.86374e-05 5.2 -4.86374e-05 5.15V5.05C-4.86374e-05 5.05 -4.86374e-05 5.05 -4.86374e-05 5C-4.86374e-05 4.85 0.0999508 4.7 0.199951 4.6L4.04995 0.75C4.19995 0.6 4.39995 0.5 4.59995 0.5C4.79995 0.5 4.99995 0.6 5.14995 0.75C5.44995 1.05 5.44995 1.55 5.14995 1.85L2.64995 4.35H11.4C11.85 4.35 12.2 4.7 12.2 5.15C12.2 5.35 12.1 5.55 11.95 5.7C11.8 5.85 11.6 5.95 11.4 5.95H2.64995L5.14995 8.45C5.44995 8.75 5.44995 9.25 5.14995 9.55C4.84995 9.85 4.34995 9.85 4.04995 9.55L3.94995 9.45L0.199951 5.7C0.0999508 5.6 -4.86374e-05 5.45 -4.86374e-05 5.25Z"/>
</svg>
