<svg width="20" height="20" viewBox="0 0 20 20" fill="none" xmlns="http://www.w3.org/2000/svg">
<path fill-rule="evenodd" clip-rule="evenodd" d="M1.80916 0H18.1908C19.19 0 20 0.81 20 1.80916V18.1908C20 19.19 19.19 20 18.1908 20H1.80916C0.81 20 0 19.19 0 18.1908V1.80916C0 0.81 0.81 0 1.80916 0ZM5.66234 17.7956C5.95312 17.7956 6.18883 17.5599 6.18883 17.2691V7.87431C6.18883 7.58353 5.95312 7.34782 5.66234 7.34782H3.42119C3.1304 7.34782 2.89469 7.58353 2.89469 7.87431V17.2691C2.89469 17.5599 3.1304 17.7956 3.42119 17.7956H5.66234ZM4.54127 6.462C3.36541 6.462 2.41216 5.50875 2.41216 4.33289C2.41216 3.15702 3.36541 2.20378 4.54127 2.20378C5.71713 2.20378 6.67038 3.15702 6.67038 4.33289C6.67038 5.50875 5.71719 6.462 4.54127 6.462ZM17.4165 17.7962C17.6838 17.7962 17.9005 17.5794 17.9005 17.3121V12.7316C17.9007 10.748 17.9009 7.19076 14.0717 7.19076C12.3327 7.19076 11.5159 7.82735 10.9664 8.65212V7.83248C10.9664 7.56515 10.7496 7.3484 10.4823 7.3484H8.15631C7.88898 7.3484 7.67222 7.56515 7.67222 7.83248V17.3121C7.67222 17.5794 7.88898 17.7962 8.15631 17.7962H10.4823C10.7497 17.7962 10.9664 17.5794 10.9664 17.3121V12.2294C11.0267 11.5465 11.3274 10.0247 12.8095 10.0247C14.5795 10.0247 14.5445 11.9325 14.5297 12.7362C14.5285 12.8001 14.5275 12.857 14.5275 12.9054V17.3121C14.5275 17.5794 14.7442 17.7962 15.0115 17.7962H17.4165Z" fill="#828282"/>
</svg>
