<svg width="13" height="10" viewBox="0 0 13 10" fill="none" xmlns="http://www.w3.org/2000/svg">
<path d="M12.2 5.25C12.2 5.2 12.2 5.2 12.2 5.15V5.05C12.2 5.05 12.2 5.05 12.2 5C12.2 4.85 12.1 4.7 12 4.6L8.15 0.75C8 0.6 7.8 0.5 7.6 0.5C7.4 0.5 7.2 0.6 7.05 0.75C6.75 1.05 6.75 1.55 7.05 1.85L9.55 4.35H0.8C0.35 4.35 0 4.7 0 5.15C0 5.35 0.1 5.55 0.25 5.7C0.4 5.85 0.6 5.95 0.8 5.95H9.55L7.05 8.45C6.75 8.75 6.75 9.25 7.05 9.55C7.35 9.85 7.85 9.85 8.15 9.55L8.25 9.45L12 5.7C12.1 5.6 12.2 5.45 12.2 5.25Z"/>
</svg>
